<?xml version="1.0" standalone="no"?>
<!DOCTYPE svg PUBLIC "-//W3C//DTD SVG 20010904//EN"
 "http://www.w3.org/TR/2001/REC-SVG-20010904/DTD/svg10.dtd">
<svg version="1.0" xmlns="http://www.w3.org/2000/svg"
 width="1200.000000pt" height="630.000000pt" viewBox="0 0 1200.000000 630.000000"
 preserveAspectRatio="xMidYMid meet">

<g transform="translate(0.000000,630.000000) scale(0.100000,-0.100000)"
fill="#000000" stroke="none">
<path d="M0 3150 l0 -3150 6000 0 6000 0 0 3150 0 3150 -6000 0 -6000 0 0
-3150z m7237 1589 c54 -26 116 -96 131 -147 7 -22 12 -102 12 -186 l0 -146
-1350 0 -1350 0 0 155 c0 176 7 205 68 269 20 21 55 47 77 57 38 18 91 19
1204 19 1160 0 1165 0 1208 -21z m143 -1197 l0 -588 -26 -52 c-14 -29 -42 -65
-62 -82 -77 -63 -13 -60 -1266 -60 -927 1 -1148 3 -1179 14 -51 19 -103 60
-135 109 l-27 41 -3 603 -2 603 1350 0 1350 0 0 -588z m-4590 -956 c0 -2 74
-220 165 -485 91 -266 165 -487 165 -492 0 -6 -34 -9 -82 -7 l-81 3 -45 133
-44 132 -183 0 -183 0 -44 -132 -45 -133 -81 -3 c-45 -2 -82 -1 -82 1 0 6 331
970 336 979 5 8 204 12 204 4z m1053 -25 c88 -43 129 -115 130 -227 0 -57 -4
-79 -24 -114 -28 -51 -63 -79 -110 -89 l-34 -8 40 -11 c66 -19 111 -56 140
-117 24 -49 27 -64 23 -128 -8 -127 -77 -221 -184 -253 -40 -11 -103 -14 -300
-12 l-249 3 -3 480 c-1 264 0 486 3 493 4 11 56 13 262 10 247 -3 260 -4 306
-27z m803 18 c75 -14 164 -61 209 -110 79 -88 115 -204 115 -374 0 -228 -71
-375 -213 -445 -88 -43 -149 -51 -363 -48 l-189 3 -1 485 c0 267 1 488 3 493
6 11 372 8 439 -4z m676 -341 l3 -353 25 -50 c31 -62 74 -92 146 -101 101 -12
186 23 220 93 17 34 19 72 24 398 l5 360 78 3 78 3 -3 -378 c-3 -364 -4 -380
-25 -433 -31 -77 -74 -124 -141 -157 -54 -27 -64 -28 -197 -28 -125 0 -145 2
-190 23 -100 46 -155 132 -174 275 -6 43 -11 218 -11 388 l0 309 79 0 79 0 4
-352z m978 -68 l0 -420 200 0 200 0 0 -75 0 -75 -280 0 -280 0 0 495 0 495 80
0 80 0 0 -420z m1450 394 c51 -24 115 -90 137 -141 8 -20 17 -66 20 -102 11
-127 -43 -233 -141 -283 -23 -11 -42 -21 -43 -22 -2 -2 44 -94 102 -207 58
-112 105 -205 105 -206 0 -2 -40 -3 -90 -3 l-90 0 -100 200 -100 200 -95 0
-95 0 0 -200 0 -201 -82 3 c-46 2 -82 6 -80 11 1 4 2 226 2 493 l0 486 253 -4
c231 -3 256 -5 297 -24z m512 -336 c3 -352 4 -364 25 -404 12 -23 33 -48 46
-57 67 -44 196 -46 259 -4 18 12 44 45 58 72 l25 50 3 353 3 352 81 0 80 0 -4
-362 c-4 -340 -6 -367 -26 -429 -28 -83 -83 -148 -154 -180 -48 -22 -67 -24
-193 -24 -133 0 -143 1 -197 28 -67 33 -110 80 -141 157 -21 53 -22 69 -25
433 l-3 377 80 0 80 0 3 -362z m1388 326 c81 -46 114 -103 119 -205 2 -65 -1
-86 -19 -124 -24 -49 -66 -84 -114 -95 l-31 -7 43 -12 c66 -19 129 -82 148
-149 39 -133 -22 -278 -142 -338 -35 -17 -66 -19 -311 -22 l-273 -3 0 496 0
496 263 -3 262 -3 55 -31z"/>
<path d="M5020 4598 c-16 -17 -20 -35 -20 -85 0 -73 20 -103 70 -103 50 0 70
30 70 105 0 52 -4 69 -20 85 -27 27 -74 26 -100 -2z"/>
<path d="M5300 4600 c-16 -16 -20 -33 -20 -85 0 -74 20 -105 68 -105 51 0 72
33 72 110 0 41 -5 56 -25 75 -29 30 -68 32 -95 5z"/>
<path d="M5590 4600 c-28 -28 -29 -149 -2 -173 25 -22 75 -21 95 1 25 27 24
153 -1 175 -25 23 -68 21 -92 -3z"/>
<path d="M6278 3958 c-9 -7 -145 -222 -303 -478 -200 -323 -288 -474 -288
-494 -1 -47 57 -74 95 -43 8 6 145 219 303 472 291 465 308 497 274 530 -21
21 -62 28 -81 13z"/>
<path d="M5382 3647 c-137 -137 -162 -167 -162 -192 0 -26 25 -55 164 -194
134 -133 169 -163 192 -163 40 0 67 37 60 82 -4 29 -27 56 -130 156 l-125 121
131 130 c111 111 131 136 131 162 0 42 -19 61 -62 61 -34 0 -48 -12 -199 -163z"/>
<path d="M6465 3788 c-27 -15 -35 -28 -35 -58 0 -19 33 -58 132 -157 l133
-133 -133 -133 c-101 -101 -132 -138 -132 -158 0 -33 29 -59 65 -59 24 0 57
28 192 163 136 135 163 168 163 192 0 23 -26 55 -147 178 -133 133 -185 178
-210 177 -4 0 -17 -6 -28 -12z"/>
<path d="M2612 2230 l-71 -215 136 -3 c75 -1 138 -1 140 2 3 2 -26 100 -64
218 l-69 213 -72 -215z"/>
<path d="M3440 2309 l0 -141 148 4 c157 3 179 10 204 57 17 32 17 131 -1 164
-25 46 -65 57 -215 57 l-136 0 0 -141z"/>
<path d="M3440 1890 l0 -152 163 4 c135 2 166 6 188 21 36 24 49 58 49 127 0
69 -13 103 -49 127 -22 15 -53 19 -188 21 l-163 4 0 -152z"/>
<path d="M4370 2095 l0 -345 128 0 c145 0 186 13 239 73 50 57 58 94 58 272 0
178 -8 215 -58 272 -53 60 -94 73 -239 73 l-128 0 0 -345z"/>
<path d="M7360 2295 l0 -155 148 0 c97 0 155 5 172 13 42 21 61 72 58 154 -6
122 -42 143 -250 143 l-128 0 0 -155z"/>
<path d="M9230 2310 l0 -140 128 0 c206 0 242 21 242 139 0 121 -34 141 -235
141 l-135 0 0 -140z"/>
<path d="M9230 1890 l0 -150 148 1 c162 0 204 9 235 51 29 39 34 131 10 178
-31 60 -66 70 -240 70 l-153 0 0 -150z"/>
</g>
</svg>
